FILE "Pitfall - The Mayan Adventure (demo) (1994)(Activision)(EU)(en).img" BINARY
  TRACK 01 MODE1/2352
    INDEX 01 00:00:00
  TRACK 02 AUDIO
    PREGAP 00:02:00
    INDEX 01 02:27:74
  TRACK 03 AUDIO
    INDEX 01 02:53:14
  TRACK 04 AUDIO
    INDEX 01 03:36:02
  TRACK 05 AUDIO
    INDEX 01 07:17:05
  TRACK 06 AUDIO
    INDEX 01 08:58:64
  TRACK 07 AUDIO
    INDEX 01 11:10:66
  TRACK 08 AUDIO
    INDEX 01 11:52:48
  TRACK 09 AUDIO
    INDEX 01 12:29:06
  TRACK 10 AUDIO
    INDEX 01 13:05:29
